PathFileType	4	(X/Y/Z)	OpenSim_Sub06_EMGBaseline_Accel.trc
DataRate	CameraRate	NumFrames	NumMarkers	Units	OrigDataRate	OrigDataStartFrame	OrigNumFrames
100	100	17	8	m	100	7237	8270
Frame#	Time	torso_imu_offset_imu	pelvis_imu_offset_imu	tibia_r_imu_offset_imu	femur_r_imu_offset_imu	tibia_l_imu_offset_imu	femur_l_imu_offset_imu	toes_r_imu_offset_imu	toes_l_imu_offset_imu
				X1	Y1	Z1	X2	Y2	Z2	X3	Y3	Z3	X4	Y4	Z4	X5	Y5	Z5	X6	Y6	Z6	X7	Y7	Z7	X8		Y8	Z8	

7237	72.36000000	7.97040101	0.53443638	5.83317142	7.45825361	-1.43660355	3.78671631	8.46997598	4.66073612	6.33087820	7.65748883	-2.48129378	3.15804889	9.95254445	-0.26840179	1.04496836	8.70798327	1.50822684	-2.40745879	15.91069585	-3.79976391	6.60394310	5.00646966	0.44903171	11.01495570
7238	72.37000000	8.27297374	0.52173735	5.77234997	7.38369666	-1.58714286	3.65347230	9.20913197	3.78527863	5.16977285	8.07917192	-2.80808613	3.25094741	9.99820915	0.85298279	0.87389501	8.66898732	1.25928724	-2.63529247	16.35296299	-3.61092567	5.26855142	5.14759136	0.71608183	11.03264789
7239	72.38000000	8.49445494	0.55340482	5.78769953	7.26566934	-1.58717395	3.56975964	10.07968612	2.46741302	3.07462808	8.29527309	-3.26338748	3.03641104	10.02359742	1.51223360	1.01277036	8.71425556	1.25539141	-2.89385872	16.97269568	-1.53349699	4.81120807	4.80300904	0.85088398	11.23384776
7240	72.39000000	8.76066354	0.53315312	5.89821473	7.24315355	-1.83312325	3.78363961	11.71873340	0.83975168	0.01170386	8.11031789	-3.65273374	2.52579082	10.17621768	1.73319826	0.99066804	8.93246648	1.64534928	-3.23325554	17.13895147	5.08390364	6.70625256	4.36757918	1.24379439	11.50315251
7241	72.40000000	8.94316243	0.52347153	5.86936797	7.41814715	-2.20519300	3.82658817	12.91010972	0.96707783	-1.51679006	7.75090248	-4.03538884	2.37167936	10.40353325	1.76254008	1.03780139	9.14267134	2.44854581	-3.50559854	19.56010327	6.46194735	6.33023624	4.78384736	1.10422286	11.44550587
7242	72.41000000	9.10615931	0.49570066	5.83719773	7.69948562	-2.47363819	3.83606809	12.97022769	1.39868823	0.63309731	7.65945465	-4.69636550	2.62659439	10.72400265	1.32042104	0.85279922	9.17160791	3.20525905	-3.71941862	20.19208199	5.66559672	3.51219331	4.83675518	0.35607487	11.23068285
7243	72.42000000	9.24104043	0.54081189	5.94874100	8.07393461	-2.27121987	3.87413000	12.39879759	2.16489295	3.74225917	7.65357645	-6.03990802	2.30092862	10.72759772	0.95194553	0.72345950	8.73793818	3.73923707	-3.54302581	21.12061456	6.94716616	1.37352447	5.19966510	0.79209222	11.40080797
7244	72.43000000	9.43344966	0.55172873	6.19195180	8.26298134	-1.84506272	4.04214097	10.23002713	2.15173825	3.99781098	7.30128785	-7.78872531	1.29859612	10.71703367	0.58024310	0.99186019	8.33442629	3.59417609	-3.03725646	20.81156738	7.97615762	-0.96893282	4.39237473	1.09663150	11.65397229
7245	72.44000000	9.46882975	0.52894121	6.39554960	8.50335781	-1.14696668	4.19412805	6.66507296	2.01402990	3.40193862	7.02357535	-8.11940335	0.51690332	10.60033325	0.05983483	0.82794058	8.31772725	3.05641015	-2.59669356	19.44181907	10.54843812	-2.30420660	4.56868036	0.89809390	11.66710909
7246	72.45000000	9.33232474	0.50380786	6.48305475	8.68268849	-0.92442541	4.18020511	4.70135072	0.65761673	0.91356421	7.19583277	-6.79837931	0.46775289	10.45269733	0.06072366	0.82199803	8.57916888	2.47222248	-2.47386223	17.63264076	13.74280029	-2.57101909	4.84340949	0.77407999	11.57158194
7247	72.46000000	9.27484376	0.50793683	6.61537328	8.82451338	-0.73534452	3.99126286	6.49925414	-1.24009574	1.09146145	7.97868269	-5.38909271	1.09277674	10.36443190	0.41699290	0.78343270	8.78957476	2.01718737	-2.87373550	15.10322602	10.10956700	-4.52553770	4.93373087	0.97259233	11.60897792
7248	72.47000000	9.18151882	0.61077136	6.70025678	8.92465700	-0.90301391	3.72219218	8.66771435	-1.50190028	2.82310753	8.65039354	-4.61115204	1.91294661	10.37001727	0.86564298	0.79119797	8.61985458	1.62589503	-3.54390176	12.53136458	0.70948749	-11.82881459	5.10536381	0.77611205	11.60933959
7249	72.48000000	9.22444384	0.64903497	6.73767001	9.08319518	-1.02285708	3.37273022	9.86369441	-0.56607491	1.38223045	8.96241781	-4.54370226	2.39294274	10.25228427	1.42553633	0.82809564	8.30390870	1.39363937	-3.99077293	15.43582038	12.11347318	-8.53752516	4.62952762	1.15547780	11.87492230
7250	72.49000000	9.30994971	0.60502843	6.81425030	9.29003468	-1.01604733	3.01970728	9.89140600	1.19183699	2.35851029	8.99982451	-4.53023538	2.90933922	10.00466112	2.21133742	1.16162669	8.04538062	1.35388645	-4.14012058	13.11801447	15.17749282	8.50387238	5.32859807	1.30000055	11.64164798
7251	72.50000000	9.13343648	0.69826729	6.74239302	9.25013942	-0.96284345	4.17535923	9.63167705	2.80024383	4.59751295	9.52145133	-4.09448758	3.69046792	9.73850245	3.00231449	1.46426738	7.70461497	1.52278680	-4.12376745	33.92214729	-8.10083109	28.31609748	5.44894576	0.95636439	11.75794947
7252	72.51000000	9.72543701	0.49933635	6.82834783	9.52368959	-0.32165505	6.21767762	11.41682484	4.27705702	7.67273848	12.45703149	-4.33394318	3.81351797	10.02702256	3.77841512	1.28760032	7.63529993	2.07101368	-4.10832466	9.65006614	14.25501662	15.94020245	5.06112684	1.07943555	12.41406586
7253	72.52000000	11.41484841	0.10256808	7.38087398	10.61992723	0.88069320	7.56443301	17.05585477	4.10400604	11.28115995	18.98822732	-5.69229929	1.82622656	11.14812179	4.49060719	1.79425529	8.00911674	2.74138034	-3.87659879	-12.53592885	4.96546747	12.17758685	4.55476792	2.30052365	12.71074971
